PathFileType	4	(X/Y/Z)	E:\Qualisys_Data\Carbon_Farble_Plate\Data\Amateur_Runner\S14\T3\S14T3V23_c3d.trc
DataRate	CameraRate	NumFrames	NumMarkers	Units	OrigDataRate	OrigDataStartFrame	OrigNumFrames
200.000000	200.000000	4	39	mm	200.000000	250	286
Frame#	Time	LSHO			RSHO			LICST			RICST			LASIS			LHEEL			RASIS			LTROC			RTROC			SACR			LTH1			LSK4			LTH2			LTH3			RHM5			LSK2			LTH4			RTH1			LTOE			RTH2			RTH3			RTH4			LLEP			RLEP			LSK1			LSK3			RSK1			LHM5			RSK2			LFT1			RSK3			RSK4			LLME			RLME			RTOE			RHEEL			RFT1			RFT2			LFT2			
		X1	Y1	Z1	X2	Y2	Z2	X3	Y3	Z3	X4	Y4	Z4	X5	Y5	Z5	X6	Y6	Z6	X7	Y7	Z7	X8	Y8	Z8	X9	Y9	Z9	X10	Y10	Z10	X11	Y11	Z11	X12	Y12	Z12	X13	Y13	Z13	X14	Y14	Z14	X15	Y15	Z15	X16	Y16	Z16	X17	Y17	Z17	X18	Y18	Z18	X19	Y19	Z19	X20	Y20	Z20	X21	Y21	Z21	X22	Y22	Z22	X23	Y23	Z23	X24	Y24	Z24	X25	Y25	Z25	X26	Y26	Z26	X27	Y27	Z27	X28	Y28	Z28	X29	Y29	Z29	X30	Y30	Z30	X31	Y31	Z31	X32	Y32	Z32	X33	Y33	Z33	X34	Y34	Z34	X35	Y35	Z35	X36	Y36	Z36	X37	Y37	Z37	X38	Y38	Z38	X39	Y39	Z39	

251	1.25	2291.891357421875	1442.89404296875	-565.9673461914062	2261.34619140625	1446.774291992188	-271.0775146484375	2245.898681640625	991.8200073242188	-534.6983642578125	2285.21630859375	999.7769775390624	-258.9647827148438	2290.04443359375	940.7565307617188	-515.2384643554688	1777.235473632812	215.670166015625	-410.1910400390625	2307.946533203125	956.3309326171876	-281.8756103515625	2139.88134765625	887.9837646484375	-547.6100463867188	2186.541259765625	873.2670288085938	-214.4734191894531	2125.32421875	996.0751342773438	-394.4762878417969	2150.895263671875	653.4884033203125	-547.7661743164062	1912.240966796875	367.3445129394531	-490.9248046875	2079.68603515625	674.0382080078125	-522.0076904296875	2135.57275390625	558.0526123046875	-523.6394653320312	2281.556396484375	106.3742065429688	-237.1392211914062	1972.028076171875	444.0667114257812	-511.7335510253906	2060.29345703125	578.4229125976562	-504.4229736328125	2400.305908203125	718.0322265625	-234.2024688720703	1953.902465820312	36.18083190917969	-442.2820739746094	2331.197021484375	684.7351684570312	-222.1523742675781	2445.663818359375	631.6998291015625	-261.3629150390625	2372.420654296875	593.2412719726562	-241.7568206787109	2063.423095703125	497.2360534667969	-515.3855590820312	2414.291015625	544.4417114257812	-249.4341430664062	2037.341918945312	394.41943359375	-512.8325805664062	1973.887817382812	314.9263305664062	-497.5118408203125	2388.043701171875	428.3272705078125	-247.6636199951172	1887.962158203125	63.0041618347168	-499.9883422851562	2313.7265625	471.3384094238281	-243.5501556396484	1769.307250976562	187.6167297363281	-381.19970703125	2329.28076171875	343.0862426757812	-257.5420837402344	2265.40625	388.2144165039062	-252.5669708251953	1835.666381835938	197.7424621582031	-470.3678283691406	2198.875732421875	225.4136505126953	-266.3504028320312	2347.840576171875	80.8825454711914	-305.8025817871094	2132.351318359375	224.9029846191406	-318.5988159179688	2127.524658203125	194.0643920898438	-346.2862854003906	2119.33056640625	207.0167236328125	-294.7096252441406	1756.417846679688	190.8185882568359	-433.6485595703125
252	1.255	2313.071044921875	1446.8623046875	-564.9118041992188	2280.9150390625	1450.022338867188	-270.9517517089844	2271.29638671875	995.16162109375	-535.2734375	2305.67333984375	1003.585754394531	-258.6070556640625	2313.11474609375	943.6669311523438	-516.1759033203125	1792.30712890625	226.6153411865234	-413.5020446777344	2329.321533203125	960.5512084960938	-281.9285583496094	2160.46484375	891.7306518554688	-547.9744262695312	2208.640380859375	877.8253784179688	-213.8665618896484	2146.617919921875	999.2186279296876	-395.3114929199219	2167.0078125	657.8883056640625	-548.4292602539062	1923.917114257812	373.8867492675781	-492.2455139160156	2096.15283203125	679.2047729492188	-522.2454833984375	2149.91845703125	562.88623046875	-525.4371948242188	2326.4677734375	102.9692306518555	-237.7606811523438	1984.235473632812	450.8922119140625	-512.5651245117188	2075.353271484375	584.2147216796875	-504.7054748535156	2422.0419921875	721.5123901367188	-234.9096069335938	1957.108642578125	34.31174468994141	-443.1214294433594	2353.012451171875	688.0431518554688	-224.2694396972656	2467.2861328125	635.5318603515625	-262.650390625	2394.250244140625	597.1325073242188	-243.4512481689453	2076.61865234375	503.1953735351562	-517.1322021484375	2436.763671875	547.9777221679688	-250.8849182128906	2049.599609375	400.802490234375	-514.359619140625	1985.991333007812	321.7837524414062	-499.8756713867188	2415.234130859375	429.4553527832031	-249.0246276855469	1892.155639648438	65.01522064208984	-499.9313049316406	2338.81494140625	468.8945007324219	-244.0855560302734	1781.927734375	198.9227752685547	-383.8953552246094	2361.449462890625	340.735107421875	-259.6471862792969	2294.62646484375	383.1072082519531	-252.8788757324219	1847.667602539062	204.4636383056641	-472.9349670410156	2236.48388671875	216.4904327392578	-267.3327941894531	2393.799072265625	81.3845443725586	-307.2215576171875	2170.571044921875	212.8542175292969	-319.3486633300781	2167.09423828125	181.5472412109375	-347.5062255859375	2158.330810546875	194.1356658935547	-295.1742553710938	1769.248657226562	202.9371490478516	-435.9906311035156
253	1.26	2334.89453125	1450.166381835938	-563.557861328125	2300.7080078125	1453.402221679688	-270.8609313964844	2292.643310546875	997.5634155273438	-535.2300415039062	2324.837890625	1006.852416992188	-260.3985900878906	2334.513916015625	946.0997924804688	-516.2238159179688	1807.5302734375	237.3602600097656	-416.1625366210938	2350.845458984375	964.58984375	-281.9159851074219	2180.873779296875	895.4893188476562	-548.421142578125	2229.88623046875	881.6689453125	-214.0259399414062	2167.946533203125	1002.138610839844	-395.9124755859375	2183.3271484375	661.9693603515625	-549.5458984375	1936.808227539062	380.6075439453125	-493.6683959960938	2112.732666015625	684.5097045898438	-522.5199584960938	2164.42431640625	566.9223022460938	-527.3576049804688	2370.896240234375	99.76470947265624	-239.1941833496094	1997.437744140625	457.3599853515625	-513.2918701171875	2090.597900390625	589.947265625	-505.7519226074219	2443.58154296875	724.8740234375	-235.7381591796875	1960.619384765625	32.39545059204102	-443.7356262207031	2374.257080078125	690.8800048828125	-225.8729400634766	2488.70263671875	638.8054809570312	-264.1570434570312	2415.808349609375	600.5283203125	-246.1314086914062	2090.40869140625	509.0045471191406	-518.0847778320312	2458.909423828125	550.4396362304688	-253.0149688720703	2061.980224609375	406.5941467285156	-516.3231811523438	1998.46044921875	328.1944580078125	-502.0800476074219	2442.238037109375	430.8042297363281	-249.5416564941406	1898.277221679688	67.85845947265625	-501.0776672363281	2363.61328125	465.7117309570312	-244.2135009765625	1795.549194335938	210.8857879638672	-386.2233276367188	2393.232666015625	339.3179931640625	-259.8682250976562	2324.5625	377.7132263183594	-253.9556579589844	1859.767822265625	211.4520111083984	-475.2233581542969	2274.54931640625	208.3878936767578	-268.3801879882812	2439.673095703125	82.09122467041016	-308.5145568847656	2208.814697265625	200.64501953125	-320.2554321289062	2207.58544921875	169.7066955566406	-348.6481018066406	2197.8701171875	181.3999786376953	-296.7622985839844	1783.0185546875	214.8095855712891	-438.3404235839844
254	1.265	2356.424560546875	1453.304077148438	-562.4248657226562	2320.673095703125	1456.069580078125	-270.8401489257812	2314.27001953125	1000.499938964844	-535.5932006835938	2345.264892578125	1010.642517089844	-260.3965148925781	2356.494384765625	948.8279418945312	-517.1951293945312	1823.50634765625	247.9441375732422	-419.1309509277344	2372.107421875	968.4180908203124	-281.8962097167969	2201.28955078125	899.4155883789062	-548.8764038085938	2251.53369140625	885.1788940429688	-214.7370910644531	2189.26123046875	1005.046875	-396.4564208984375	2199.743896484375	666.3322143554688	-550.8462524414062	1950.065185546875	387.0782775878906	-494.94775390625	2129.64453125	689.5050659179688	-522.458984375	2179.358642578125	571.5990600585938	-528.8807373046875	2415.08056640625	97.11956787109376	-240.5338287353516	2011.371459960938	463.7012329101562	-513.9317626953125	2106.00830078125	595.125732421875	-506.0401306152344	2464.52685546875	727.0957641601562	-236.9809417724609	1963.919555664062	30.69302368164062	-444.2283935546875	2395.356201171875	694.2278442382812	-227.0906372070312	2509.56591796875	641.2279052734375	-265.262451171875	2437.1142578125	603.1087646484375	-247.9146423339844	2104.611083984375	514.4517211914062	-519.3466186523438	2480.53955078125	552.4363403320312	-253.7946624755859	2075.74609375	412.4585266113281	-517.8663330078125	2011.169555664062	334.2611083984375	-504.3443298339844	2468.553955078125	431.34619140625	-250.7722778320312	1904.44873046875	71.51115417480469	-501.3845825195312	2388.59912109375	462.2665405273438	-244.0608215332031	1809.697509765625	222.8887634277344	-387.9631958007812	2424.190673828125	337.6864013671875	-261.0982055664062	2353.90234375	372.5387268066406	-253.9886779785156	1872.108276367188	218.7304229736328	-477.6601867675781	2312.761962890625	200.1187438964844	-269.4161682128906	2485.093505859375	84.04793548583984	-309.9194946289062	2247.3916015625	188.9389190673828	-321.8313598632812	2248.71533203125	157.5673675537109	-349.6732788085938	2237.76611328125	168.7888641357422	-298.0094299316406	1797.425659179688	226.7247314453125	-441.16357421875
